<?xml version="1.0" encoding="UTF-8"?><svg id="Ebene_1" xmlns="http://www.w3.org/2000/svg" viewBox="0 0 1366 225"><defs><style>.cls-1,.cls-2,.cls-3,.cls-4,.cls-5{letter-spacing:.1em;}.cls-6,.cls-7{letter-spacing:.1em;}.cls-8{letter-spacing:.1em;}.cls-9,.cls-10,.cls-11,.cls-12,.cls-13{font-family:Helvetica-Bold, Helvetica;}.cls-9,.cls-10,.cls-11,.cls-12,.cls-13,.cls-14,.cls-5{font-size:19px;}.cls-9,.cls-7{fill:blue;}.cls-10,.cls-4{fill:lime;}.cls-11,.cls-2{fill:#f0f;}.cls-12,.cls-3{fill:red;}.cls-15{letter-spacing:-.07em;}.cls-16{fill:none;stroke:#000;stroke-miterlimit:10;}.cls-14,.cls-5{font-family:Menlo-Bold, Menlo;}</style></defs><text class="cls-14" transform="translate(20.22 129)"><tspan class="cls-3" x="0" y="0">ZH19-35</tspan><tspan class="cls-8" x="92.84" y="0">!</tspan><tspan class="cls-1" x="106.1" y="0">0!0</tspan><tspan class="cls-4" x="145.89" y="0">!</tspan><tspan class="cls-8" x="159.16" y="0" xml:space="preserve">  53.0!2019-09-10!16-43-35!15!</tspan><tspan class="cls-7" x="557.04" y="0">10</tspan><tspan class="cls-6" x="583.57" y="0">!</tspan><tspan class="cls-2" x="596.83" y="0">1500</tspan><tspan class="cls-1" x="649.88" y="0">!53.0!0.0!No-Filter!5.0!12.0!Run1!Rep0!Sett Low.spe</tspan></text><text class="cls-5" transform="translate(20.22 58.47)"><tspan x="0" y="0" xml:space="preserve">1      !2!3!4     !5         !6       !7 !8 !9   !10  !11 !12       !13 !14  !15  !16  !17</tspan></text><text class="cls-13" transform="translate(20.22 28.47)"><tspan x="0" y="0">Index:</tspan></text><text class="cls-13" transform="translate(20.22 101.47)"><tspan x="0" y="0">Spectrum field:</tspan></text><text class="cls-12" transform="translate(21.22 213.47)"><tspan x="0" y="0">CoreID</tspan></text><text class="cls-9" transform="translate(504.58 213.47)"><tspan class="cls-15" x="0" y="0">V</tspan><tspan x="11.27" y="0">oltage</tspan></text><text class="cls-11" transform="translate(649.95 213.47)"><tspan x="0" y="0">Current</tspan></text><g><line class="cls-16" x1="59" y1="188" x2="59" y2="147.18"/><polygon points="63.99 148.63 59 140 54.01 148.63 63.99 148.63"/></g><g><line class="cls-16" x1="560.5" y1="188.5" x2="582.19" y2="146.86"/><polygon points="585.93 150.46 585.5 140.5 577.09 145.85 585.93 150.46"/></g><g><line class="cls-16" x1="691.5" y1="189" x2="656.07" y2="146.04"/><polygon points="660.84 143.99 651.5 140.5 653.15 150.33 660.84 143.99"/></g><text class="cls-10" transform="translate(150.58 213.47)"><tspan x="0" y="0">Separator</tspan></text><g><line class="cls-16" x1="196.5" y1="189.5" x2="175.63" y2="146.46"/><polygon points="180.75 145.59 172.5 140 171.78 149.95 180.75 145.59"/></g><text class="cls-13" transform="translate(1256.65 28.6)"><tspan x="0" y="0">17 fields</tspan></text><g><line class="cls-16" x1="1251" y1="23.25" x2="1224.08" y2="44.99"/><polygon points="1222.08 40.2 1218.5 49.5 1228.35 47.95 1222.08 40.2"/></g></svg>