<?xml version="1.0" encoding="utf-8"?>
<!-- Generator: Adobe Illustrator 25.0.1, SVG Export Plug-In . SVG Version: 6.00 Build 0)  -->
<svg version="1.1" xmlns="http://www.w3.org/2000/svg" xmlns:xlink="http://www.w3.org/1999/xlink" x="0px" y="0px"
	 viewBox="0 0 735 852" style="enable-background:new 0 0 735 852;" xml:space="preserve">
<style type="text/css">
	.st0{fill:#5656DB;}
	.st1{display:none;}
	.st2{fill:#3D3AAF;}
	.st3{fill:#875B4E;}
	.st4{fill:url(#SVGID_1_);}
	.st5{fill:url(#SVGID_2_);}
	.st6{fill:#27282D;}
	.st7{fill:none;stroke:#FFFDFD;stroke-width:7;stroke-linecap:round;stroke-miterlimit:10;}
	.st8{clip-path:url(#SVGID_4_);fill:url(#SVGID_5_);}
	.st9{clip-path:url(#SVGID_4_);}
	.st10{fill:#6B5630;}
	.st11{fill:#FFFFFF;fill-opacity:0.33;}
	.st12{fill:url(#SVGID_6_);}
	.st13{fill:url(#SVGID_7_);}
	.st14{fill:#FFFFFF;}
</style>
<g id="outline">
	<g id="Layer_1_1_">
		<g>
			<path class="st0" d="M734.9,637.4V213.1l-29.3-16.9L427.8,35.8L367.5,1l-60.3,34.8L29.4,196.2L0.1,213.1v424.3l29.3,16.9
				l281.3,162.4l56.9,32.8l56.9-32.8l281.3-162.4L734.9,637.4z"/>
		</g>
	</g>
</g>
<g id="Layer_6" class="st1">
</g>
<g id="Layer_3" class="st1">
	
		<image style="display:inline;overflow:visible;" width="512" height="512" xlink:href="5E426787.jpg"  transform="matrix(1 0 0 1 -800.1887 72.3774)">
	</image>
	
		<image style="display:inline;overflow:visible;" width="240" height="240" xlink:href="5E426785.jpg"  transform="matrix(3.1465 0 0 3.1384 -1211.5353 619.2927)">
	</image>
</g>
<g id="bg">
	<polygon class="st2" points="705.6,231 367.5,35.8 367.5,35.8 29.4,231 29.4,621.5 367.5,816.7 705.6,621.5 	"/>
</g>
<g id="otter">
	
		<ellipse transform="matrix(6.053603e-02 -0.9982 0.9982 6.053603e-02 -180.3213 718.6992)" class="st3" cx="291.6" cy="455.1" rx="44.4" ry="79.2"/>
	
		<radialGradient id="SVGID_1_" cx="378.566" cy="544.9122" r="266.6713" gradientTransform="matrix(0.9927 0.1202 -6.515573e-02 0.5381 38.2494 206.1974)" gradientUnits="userSpaceOnUse">
		<stop  offset="0.1519" style="stop-color:#B68D76"/>
		<stop  offset="0.9734" style="stop-color:#875B4E"/>
	</radialGradient>
	<path class="st4" d="M259.1,341.6c0,0,8.1,152.7,135.1,152.7c166.9,0,190.9-77.9,173.7-157.8c-28.5-132.2-142.6-102.3-140.4-130.9
		c1.7-21.4,33.3-28.3,82.9-20.5c155.8,24.5,195.3,165.1,195.3,165.1v271.2L367.5,816.7L29.4,621.5V383L259.1,341.6z"/>
	<path class="st3" d="M57.1,323c0,0,33.7-56.4,50.3-55.1s0,29.8,0,29.8L57.1,323z"/>
	<path class="st3" d="M81.5,314.5c0,0,39.9-52.1,56.3-49s-3.4,29.6-3.4,29.6L81.5,314.5z"/>
	<circle class="st3" cx="252.3" cy="297.4" r="23.2"/>
	
		<radialGradient id="SVGID_2_" cx="172.0755" cy="356.0189" r="115.887" gradientTransform="matrix(0.8774 -0.4173 0.3299 0.7036 -93.5332 176.3134)" gradientUnits="userSpaceOnUse">
		<stop  offset="0.1429" style="stop-color:#FBE5CB"/>
		<stop  offset="0.9582" style="stop-color:#875B4E"/>
	</radialGradient>
	<path class="st5" d="M277.6,338.4c20.4,56.4-17.4,121.9-84.6,146.2c-67.2,24.3-138.2-1.7-158.6-58.1S51.8,304.6,119,280.3
		S257.2,282,277.6,338.4z"/>
	
		<ellipse transform="matrix(0.7694 -0.6388 0.6388 0.7694 -158.9194 229.3708)" class="st6" cx="238.2" cy="334.8" rx="19.7" ry="22.1"/>
	
		<ellipse transform="matrix(0.1448 -0.9895 0.9895 0.1448 -291.6505 430.6095)" class="st6" cx="103.3" cy="384" rx="22.1" ry="20"/>
	<path class="st6" d="M289.5,358.4c-5.2-6.9-16.9-5.5-10.1,10.9c7.9,19-17,50.3-56.3,51.6c-2.9,0.1-5.3-0.8-7.3-2.3l-12-24.5
		c-3.3-11.4,21.8-22.3,19.9-28.6c-2-6.4-11.3-7.9-22.1-14.3c-9.5-5.6-11.9-17.8-25.7-14.3c0,0-3.1,0.7-4.3,1.5
		c-0.6,0.3-1.8,1.2-1.8,1.2c-11.7,8.3-3.9,17.9-5.7,28.8c-2.1,12.4-7,20.4-3.4,26.1c3.5,5.6,28.1-6.6,34.7,3.4l10.9,24.9
		c-0.1,2.5-1,4.9-3,7.1c-26.4,29.2-66.4,28-75.8,9.7c-8.1-15.7-16.7-7.7-14.8,0.7c2.1,9.4,44.8,51.3,98.1-5.8c0,0,2.7,3,7.4,0.7
		c4.6-2.3,3.6-5.5,3.6-5.5C294.4,428.4,295.3,366.1,289.5,358.4z"/>
	<line class="st7" x1="88.5" y1="445.3" x2="62.7" y2="465"/>
	<line class="st7" x1="107.8" y1="455.1" x2="62.7" y2="527.8"/>
	<line class="st7" x1="124.5" y1="469.8" x2="103.3" y2="535.9"/>
	<g>
		<defs>
			<polygon id="SVGID_3_" points="432.5,779.2 367.5,816.7 302.5,779.2 302.5,265.5 432.5,265.5 			"/>
		</defs>
		<clipPath id="SVGID_4_">
			<use xlink:href="#SVGID_3_"  style="overflow:visible;"/>
		</clipPath>
		<linearGradient id="SVGID_5_" gradientUnits="userSpaceOnUse" x1="363.3836" y1="266.3962" x2="363.3836" y2="806.1018">
			<stop  offset="0" style="stop-color:#877440"/>
			<stop  offset="1" style="stop-color:#827452"/>
		</linearGradient>
		<rect x="224.6" y="193" class="st8" width="277.6" height="646.6"/>
		<g class="st9">
			<path class="st10" d="M438.1,488.1c-48.4,0-96.7,0-145.8,0c0-4.1,0-7.8,0-12.4c48.6,0,97.2,0,145.8,0
				C438.1,479.9,438.1,484,438.1,488.1z"/>
			<path class="st10" d="M438.1,516c-48.4,0-96.7,0-145.8,0c0-4.1,0-7.8,0-12.4c48.6,0,97.2,0,145.8,0
				C438.1,507.7,438.1,511.9,438.1,516z"/>
			<path class="st10" d="M438.1,351.9c-48.4,0-96.7,0-145.8,0c0-4.1,0-7.8,0-12.4c48.6,0,97.2,0,145.8,0
				C438.1,343.7,438.1,347.8,438.1,351.9z"/>
			<path class="st10" d="M438.1,447.9c-48.4,0-96.7,0-145.8,0c0-4.1,0-7.8,0-12.4c48.6,0,97.2,0,145.8,0
				C438.1,439.6,438.1,443.8,438.1,447.9z"/>
			<path class="st10" d="M438.1,581c-48.4,0-96.7,0-145.8,0c0-4.1,0-7.8,0-12.4c48.6,0,97.2,0,145.8,0
				C438.1,572.8,438.1,576.9,438.1,581z"/>
			<path class="st10" d="M438.1,401.5c-48.4,0-96.7,0-145.8,0c0-4.1,0-7.8,0-12.4c48.6,0,97.2,0,145.8,0
				C438.1,393.2,438.1,397.3,438.1,401.5z"/>
			<path class="st10" d="M438.1,748.2c-48.4,0-96.7,0-145.8,0c0-4.1,0-7.8,0-12.4c48.6,0,97.2,0,145.8,0
				C438.1,739.9,438.1,744.1,438.1,748.2z"/>
			<path class="st10" d="M438.1,413.8c-48.4,0-96.8,0-145.8,0c0-3.1,0-5.7,0-9.3c48.5,0,97.2,0,145.8,0
				C438.1,407.6,438.1,410.7,438.1,413.8z"/>
			<path class="st10" d="M438.1,788.4c-48.4,0-96.8,0-145.8,0c0-3.1,0-5.7,0-9.3c48.5,0,97.2,0,145.8,0
				C438.1,782.2,438.1,785.3,438.1,788.4z"/>
			<path class="st10" d="M438.1,293.1c-48.4,0-96.9,0-146.1,0c-0.2-2.3-0.3-4.3-0.4-6.2c48.8,0,97.7,0,146.5,0
				C438.1,289,438.1,291.1,438.1,293.1z"/>
			<path class="st10" d="M438.1,608.9c-48.4,0-96.8,0-145,0c-4.2-7,1.7-6.2,6.4-6.2c32.1,0,64.1,0,96.2,0c14.1,0,28.2,0,42.3,0
				C438.1,604.7,438.1,606.8,438.1,608.9z"/>
			<path class="st10" d="M438.1,537.7c-46.2,0-92.4,0-138.5,0c-4.4,0-9.8,0.8-7.1-6.2c48.3,0,97,0,145.6,0
				C438.1,533.5,438.1,535.6,438.1,537.7z"/>
			<path class="st10" d="M438.1,367.4c-46.2,0-92.4,0-138.5,0c-4.4,0-9.8,0.8-7.1-6.2c48.3,0,97,0,145.6,0
				C438.1,363.3,438.1,365.3,438.1,367.4z"/>
			<path class="st10" d="M438.1,633.6c-48.4,0-96.8,0-145,0c-4.2-7,1.7-6.2,6.4-6.2c32.1,0,64.1,0,96.2,0c14.1,0,28.2,0,42.3,0
				C438.1,629.5,438.1,631.6,438.1,633.6z"/>
			<path class="st10" d="M438.1,683.2c-46.2,0-92.4,0-138.5,0c-4.4,0-9.8,0.8-7.1-6.2c48.3,0,97,0,145.6,0
				C438.1,679,438.1,681.1,438.1,683.2z"/>
			<path class="st10" d="M438.1,701.7c-46.2,0-92.4,0-138.5,0c-4.4,0-9.8,0.8-7.1-6.2c48.3,0,97,0,145.6,0
				C438.1,697.6,438.1,699.7,438.1,701.7z"/>
			<path class="st10" d="M438.1,769.9c-48.4,0-96.8,0-145,0c-4.2-7,1.7-6.2,6.4-6.2c32.1,0,64.1,0,96.2,0c14.1,0,28.2,0,42.3,0
				C438.1,765.7,438.1,767.8,438.1,769.9z"/>
			<path class="st10" d="M291.6,803.9c0-1.8,0-3.6,0-6.2c49.1,0,97.8,0,146.5,0c0,2.1,0,4.1,0,6.2
				C389.3,803.9,340.5,803.9,291.6,803.9z"/>
			<ellipse class="st10" cx="365.1" cy="452.5" rx="103.3" ry="2.2"/>
			<ellipse class="st10" cx="365.1" cy="458.7" rx="103.3" ry="2.2"/>
			<ellipse class="st10" cx="365.1" cy="468" rx="103.3" ry="2.2"/>
			<ellipse class="st10" cx="365.1" cy="492.8" rx="103.3" ry="2.2"/>
			<ellipse class="st10" cx="365.1" cy="520.6" rx="103.3" ry="2.2"/>
			<ellipse class="st10" cx="365.1" cy="545.4" rx="103.3" ry="2.2"/>
			<ellipse class="st10" cx="365.1" cy="560.9" rx="103.3" ry="2.2"/>
			<ellipse class="st10" cx="365.1" cy="585.7" rx="103.3" ry="2.2"/>
			<ellipse class="st10" cx="365.1" cy="594.9" rx="103.3" ry="2.2"/>
			<ellipse class="st10" cx="365.1" cy="526.8" rx="103.3" ry="2.2"/>
			<ellipse class="st10" cx="365.1" cy="622.8" rx="103.3" ry="2.2"/>
			<ellipse class="st10" cx="365.1" cy="297.7" rx="103.3" ry="2.2"/>
			<ellipse class="st10" cx="365.1" cy="641.4" rx="103.3" ry="2.2"/>
			<ellipse class="st10" cx="365.1" cy="647.6" rx="103.3" ry="2.2"/>
			<ellipse class="st10" cx="365.1" cy="663" rx="103.3" ry="2.2"/>
			<ellipse class="st10" cx="365.1" cy="307" rx="103.3" ry="2.2"/>
			<ellipse class="st10" cx="365.1" cy="687.8" rx="103.3" ry="2.2"/>
			<ellipse class="st10" cx="365.1" cy="322.5" rx="103.3" ry="2.2"/>
			<ellipse class="st10" cx="365.1" cy="715.7" rx="103.3" ry="2.2"/>
			<ellipse class="st10" cx="365.1" cy="721.9" rx="103.3" ry="2.2"/>
			<ellipse class="st10" cx="365.1" cy="731.2" rx="103.3" ry="2.2"/>
			<ellipse class="st10" cx="365.1" cy="331.8" rx="103.3" ry="2.2"/>
			<ellipse class="st10" cx="365.1" cy="755.9" rx="103.3" ry="2.2"/>
			<ellipse class="st10" cx="365.1" cy="375.1" rx="103.3" ry="2.2"/>
			<ellipse class="st10" cx="365.1" cy="418.5" rx="103.3" ry="2.2"/>
			<ellipse class="st10" cx="365.1" cy="793.1" rx="103.3" ry="2.2"/>
			<ellipse class="st10" cx="365.1" cy="424.7" rx="103.3" ry="2.2"/>
			<ellipse class="st10" cx="365.1" cy="356.6" rx="103.3" ry="2.2"/>
		</g>
	</g>
	<polygon class="st11" points="346.2,804.4 321.2,790 321.2,274.2 346.2,274.2 	"/>
	
		<ellipse transform="matrix(0.3275 -0.9448 0.9448 0.3275 -415.5504 614.5502)" class="st3" cx="224" cy="599.2" rx="50.9" ry="90.2"/>
	<linearGradient id="SVGID_6_" gradientUnits="userSpaceOnUse" x1="441.535" y1="596.9633" x2="492.4784" y2="531.0765">
		<stop  offset="0" style="stop-color:#63463D"/>
		<stop  offset="0.9734" style="stop-color:#875B4E"/>
	</linearGradient>
	<path class="st12" d="M432.5,478.3c13.6-6.8,30.2-10.4,50.1-7.6c70.6,10.1,81.4,69,77.9,93.7c-3.5,24.7-43.7,60.8-61.9,54
		s-8.2-24.5-8.2-24.5s-22.2,28.4-37.2,15.6c-15-12.8,5.7-32.8,5.7-32.8s-22.7,34.1-41.3,17.8s32.7-69.8,45.2-71.6
		c0,0-12.8,5.3-30.3,8.7"/>
	<linearGradient id="SVGID_7_" gradientUnits="userSpaceOnUse" x1="441.0695" y1="662.0567" x2="464.6166" y2="711.868">
		<stop  offset="0" style="stop-color:#63463D"/>
		<stop  offset="0.9734" style="stop-color:#875B4E"/>
	</linearGradient>
	<path class="st13" d="M400.3,680.6c20.2,0.5,13.8,17.8,13.8,17.8s-0.1-28.2,17-32.6s29.5,17.6,29.5,17.6s-10.2-24.7,5.5-34.6
		c22.3-14.1,54.5-3.6,64.9,21.3s-32,57.1-70.5,67.6c-38.5,10.5-76.2,8-79.2-24.4S400.3,680.6,400.3,680.6z"/>
	<path class="st6" d="M438.1,274.2H296.9V237c0,0,2.3-6.6,70.6-6.6s70.6,6.6,70.6,6.6V274.2z"/>
	<circle class="st14" cx="93.6" cy="377.4" r="5"/>
	<circle class="st14" cx="229.1" cy="325.6" r="5"/>
	
		<ellipse transform="matrix(0.7706 -0.6373 0.6373 0.7706 -304.7883 331.9146)" class="st3" cx="308.7" cy="589.4" rx="29.9" ry="35.7"/>
</g>
<g id="text">
	<g>
		<g>
			<path class="st14" d="M165.2,255.6c-2.5,0.1-4.8-0.5-6.9-1.8c-2.1-1.3-4-3.3-5.5-6l-10.4-18.1c-1.6-2.8-2.5-5.5-2.7-8.1
				c-0.1-2.6,0.5-5,1.8-7.1c1.3-2.2,3.4-4,6.1-5.6c2.7-1.6,5.4-2.4,8-2.5c2.6-0.1,4.9,0.6,7.1,2c2.2,1.4,4.1,3.6,5.7,6.4l0.8,1.4
				l-7.8,4.5l-0.8-1.4c-1.1-2-2.5-3.2-4-3.8c-1.5-0.5-3.1-0.4-4.7,0.6c-1.6,1-2.6,2.2-2.9,3.8c-0.3,1.6,0.1,3.3,1.2,5.3l10.4,18.1
				c1,1.7,2.2,2.8,3.7,3.2c1.5,0.4,3,0.1,4.7-0.8c1.6-0.9,2.6-2.2,3-3.7c0.3-1.5,0-3.2-1-4.9l-0.8-1.4l7.8-4.5l0.8,1.4
				c1.6,2.7,2.4,5.3,2.5,7.9c0.1,2.5-0.6,4.9-1.9,7c-1.4,2.1-3.4,4-6.2,5.6C170.3,254.6,167.6,255.5,165.2,255.6z"/>
			<path class="st14" d="M189.5,201c-1-1.7-2.2-2.8-3.7-3.2c-1.5-0.4-3-0.1-4.7,0.8c-1.5,0.8-2.3,2-2.6,3.4c-0.3,1.4,0.1,3,1.1,4.7
				l-7.6,4.4c-2.3-3.9-2.9-7.5-2-10.9c0.9-3.4,3.4-6.2,7.3-8.5c2.7-1.5,5.2-2.4,7.7-2.5c2.5-0.1,4.7,0.4,6.7,1.7
				c2,1.3,3.8,3.2,5.3,5.8l18.1,31.3l-7.6,4.4L189.5,201z M190.5,239c-2.9-1-5.5-3.5-7.8-7.5c-2.8-4.8-3.8-9-2.9-12.7
				c0.8-3.6,3.5-6.7,7.9-9.3l5.5-3.2l4.6,6.7l-6,3.5c-1.9,1.1-3,2.6-3.3,4.3c-0.3,1.8,0.3,3.9,1.7,6.3c1,1.7,2.1,2.7,3.4,3
				c1.3,0.3,2.8,0,4.5-0.9c2-1.1,3.1-2.5,3.4-4.2c0.3-1.6-0.1-3.5-1.4-5.7l3.2,3.5c1.2,2.1,1.9,4.1,2.1,5.9c0.2,1.8-0.2,3.4-1,4.9
				c-0.9,1.4-2.3,2.7-4.2,3.8C196.6,239.4,193.4,240,190.5,239z"/>
			<path class="st14" d="M196,181.9l7.8-4.5l24.7,42.8l-7.8,4.5L196,181.9z M219,178c-0.2,0.1-0.5,0.3-0.8,0.5
				c-3.2,1.8-5.2,4.1-6.1,6.7c-0.9,2.6-0.6,5.3,0.9,8l-5.7-7.9c-0.1-3.4,0.5-6.4,1.9-9.1c1.4-2.7,3.3-4.8,6-6.3l4.5,7.8
				C219.5,177.8,219.3,177.9,219,178z"/>
			<path class="st14" d="M218.2,169.1l7.8-4.5l24.7,42.8l-7.8,4.5L218.2,169.1z M241.2,165.2c-0.2,0.1-0.5,0.3-0.8,0.5
				c-3.2,1.8-5.2,4.1-6.1,6.7c-0.9,2.6-0.6,5.3,0.9,8l-5.7-7.9c-0.1-3.4,0.5-6.4,1.9-9.1c1.4-2.7,3.3-4.8,6-6.3l4.5,7.8
				C241.7,165,241.4,165.1,241.2,165.2z"/>
			<path class="st14" d="M240.3,156.3l7.8-4.5l24.7,42.8l-7.8,4.5L240.3,156.3z M263.4,152.5c-0.2,0.1-0.5,0.3-0.8,0.5
				c-3.2,1.8-5.2,4.1-6.1,6.7c-0.9,2.6-0.6,5.3,0.9,8l-5.7-7.9c-0.1-3.4,0.5-6.4,1.9-9.1c1.4-2.7,3.3-4.8,6-6.3l4.5,7.8
				C263.8,152.2,263.6,152.3,263.4,152.5z"/>
			<path class="st14" d="M292.3,182.2c-2.4,0.1-4.7-0.5-6.7-1.8c-2-1.3-3.8-3.2-5.3-5.9L269,155.1c-1.5-2.6-2.3-5.1-2.4-7.5
				c-0.1-2.4,0.5-4.6,1.8-6.6c1.3-2,3.3-3.8,5.8-5.3s5.1-2.3,7.4-2.4c2.4-0.1,4.6,0.5,6.6,1.8c2,1.3,3.8,3.2,5.2,5.8l11.4,19.7
				c1.5,2.6,2.3,5.1,2.4,7.5c0.1,2.4-0.5,4.6-1.7,6.6c-1.3,2-3.2,3.8-5.8,5.3S294.7,182.1,292.3,182.2z M297.8,169.1
				c0.3-1.3,0-2.8-1-4.4l-11-19c-0.9-1.5-2-2.5-3.3-2.9c-1.3-0.4-2.6-0.2-4,0.6c-1.4,0.8-2.2,1.9-2.5,3.2c-0.3,1.3,0,2.8,0.9,4.3
				l11,19c0.9,1.6,2,2.6,3.3,3c1.3,0.4,2.6,0.2,4-0.6C296.7,171.5,297.5,170.4,297.8,169.1z"/>
			<path class="st14" d="M321.9,162.8c-2.7-1-5.2-3.3-7.3-7.1l-25.5-44.1l7.8-4.5l25.5,44.1c0.7,1.2,1.5,2,2.5,2.4
				c0.9,0.4,1.9,0.3,2.9-0.3l3.1-1.8l4.3,7.4l-4,2.3C327.7,163.2,324.6,163.7,321.9,162.8z M291.9,126.5l18.5-10.7l4.3,7.4
				L296.2,134L291.9,126.5z"/>
			<path class="st14" d="M340.3,152.1c-2.7-1-5.2-3.3-7.3-7.1l-25.5-44.1l7.8-4.5l25.5,44.1c0.7,1.2,1.5,2,2.5,2.4
				c0.9,0.4,1.9,0.3,2.9-0.3l3.1-1.8l4.3,7.4l-4,2.3C346.1,152.6,343,153.1,340.3,152.1z M310.3,115.9l18.5-10.7l4.3,7.4l-18.5,10.7
				L310.3,115.9z"/>
			<path class="st14" d="M362,141.7c-2.6,0-5-0.8-7.2-2.3c-2.3-1.5-4.2-3.8-6-6.8l-8.6-15c-1.8-3.2-2.9-6.2-3.2-9
				c-0.3-2.8,0.2-5.4,1.4-7.6c1.2-2.3,3.2-4.2,5.8-5.7c2.7-1.6,5.3-2.3,7.9-2.4c2.5,0,4.9,0.7,7.1,2.2c2.2,1.5,4.2,3.7,5.8,6.7
				l6.5,11.3l-20,11.6l-3.7-6.5l12.5-7.2l-2.7-4.7c-1.3-2.2-2.7-3.7-4.4-4.4c-1.6-0.7-3.3-0.5-5,0.5c-1.6,1-2.6,2.3-2.7,4.2
				c-0.2,1.8,0.4,3.9,1.8,6.3l9,15.6c1.2,2.1,2.6,3.4,4.3,4.1c1.6,0.6,3.3,0.4,5.1-0.6c1.6-0.9,2.6-2.1,3-3.5
				c0.4-1.4,0.1-2.9-0.8-4.5l-0.2-0.3l7.5-4.3l0.2,0.3c2.3,3.9,2.9,7.6,2,11c-1,3.4-3.4,6.3-7.5,8.6
				C367.2,140.9,364.5,141.7,362,141.7z"/>
			<path class="st14" d="M362.7,85.6l7.8-4.5l24.7,42.8l-7.8,4.5L362.7,85.6z M385.8,81.8c-0.2,0.1-0.5,0.3-0.8,0.5
				c-3.2,1.8-5.2,4.1-6.1,6.7c-0.9,2.6-0.6,5.3,0.9,8l-5.7-7.9c-0.1-3.4,0.5-6.4,1.9-9.1c1.4-2.7,3.3-4.8,6-6.3l4.5,7.8
				C386.2,81.5,386,81.7,385.8,81.8z"/>
		</g>
	</g>
</g>
</svg>
